<?xml version="1.0" encoding="utf-8"?>
<svg viewBox="0 0 134.839 134.985" xmlns="http://www.w3.org/2000/svg">
  <g>
    <path d="M134.839 22.8516L134.839 112.28C134.839 127.368 127.222 134.985 111.841 134.985L22.998 134.985C7.69043 134.985 0 127.441 0 112.28L0 22.8516C0 7.69043 7.69043 0.146484 22.998 0.146484L111.841 0.146484C127.222 0.146484 134.839 7.76367 134.839 22.8516ZM27.0996 103.564C24.3896 103.564 22.4854 105.542 22.4854 108.105C22.4854 110.596 24.3896 112.573 27.0996 112.573L81.3721 112.573C84.0088 112.573 85.9131 110.596 85.9131 108.105C85.9131 105.542 84.0088 103.564 81.3721 103.564ZM27.0996 78.5156C24.3896 78.5156 22.4854 80.4932 22.4854 82.9834C22.4854 85.5469 24.3896 87.5244 27.0996 87.5244L100.708 87.5244C103.271 87.5244 105.176 85.5469 105.176 82.9834C105.176 80.4932 103.271 78.5156 100.708 78.5156ZM41.748 25.4883C39.917 22.1191 36.9141 19.8486 32.959 19.8486C26.9531 19.8486 22.4854 24.5361 22.4854 30.9814C22.4854 40.5029 32.7393 48.8525 39.9902 53.9795C40.6494 54.4189 41.3818 54.7852 41.8213 54.7852C42.334 54.7852 42.9932 54.3457 43.6523 53.9795C51.0498 49.3652 61.084 40.5029 61.084 30.9814C61.084 24.5361 56.6162 19.8486 50.3906 19.8486C46.7285 19.8486 43.5791 22.1191 41.748 25.4883Z" fill="#ffffff"/>
  </g>
</svg>