<?xml version="1.0" encoding="UTF-8"?>
<svg width="142px" height="156px" viewBox="0 0 142 156" version="1.1" xmlns="http://www.w3.org/2000/svg" xmlns:xlink="http://www.w3.org/1999/xlink">
    <title>medibound 2</title>
    <g id="Page-1" stroke="none" stroke-width="1" fill="none" fill-rule="evenodd">
        <g id="medibound" transform="translate(-0, 0.4851)" fill="#FFFFFF" fill-rule="nonzero">
            <path d="M60.1224,154.915879 C59.6451,154.800879 59.1548,154.705879 58.6837,154.563879 C57.8637,154.291879 57.0814,153.918879 56.3543,153.453879 C40.3954,143.853879 24.4298,134.251879 8.45546001,124.646879 C5.01439001,122.572879 2.74907001,119.495879 1.19539001,115.848879 C0.393137005,113.947879 -0.013515095,111.900879 0.00416547504,109.835879 C0.019635905,92.5234795 0.019635905,75.2109795 0.00416547504,57.8984795 C-0.031195595,56.8327795 0.158870005,55.7715795 0.563313005,54.7855795 C1.44292001,52.7982795 3.26402001,51.8499795 5.40115001,52.2420795 C6.49071001,52.4636795 7.53608001,52.8691795 8.48862001,53.4451795 C18.372,59.1347795 28.2599,64.8221795 38.1499,70.5072795 C44.137,73.9480795 50.102,77.4265795 56.1178,80.8230795 C59.7206,82.8569795 62.233,85.8235795 63.9613,89.5191795 C64.9647,91.6771795 65.4664,94.0367795 65.4266,96.4184795 C65.3537,106.855879 65.3338,117.293879 65.29,127.728879 C65.263,134.840879 65.2343,141.952879 65.2012,149.064879 C65.2012,150.145879 65.1128,151.215879 64.6862,152.228879 C64.0851,153.659879 63.0662,154.583879 61.5059,154.847879 C61.4573,154.862879 61.4131,154.884879 61.3733,154.913879 L60.1224,154.915879 Z M80.2767,154.915879 C80.0491,154.849879 79.8038,154.794879 79.5717,154.720879 C77.9053,154.175879 77.0721,152.917879 76.6654,151.302879 C76.4024,150.231879 76.451,149.137879 76.4382,148.047879 C76.3958,137.321879 76.3538,126.594879 76.314,115.866879 C76.2897,109.412879 76.314,102.958879 76.2146,96.5040795 C76.1593,92.7750795 77.3638,89.5068795 79.3949,86.4802795 C80.9442,84.1737795 83.0062,82.2593795 85.4219,80.8878795 C101.328,71.7769795 117.217,62.6416795 133.085,53.4842795 C134.184,52.8527795 135.32,52.3453795 136.597,52.2079795 C139.097,51.9553795 140.801,53.3645795 141.393,55.7198795 C141.495,56.1230795 141.556,56.5374795 141.636,56.9473795 L141.636,111.364879 C141.541,111.955879 141.556,112.558879 141.408,113.150879 C140.728,116.043879 139.377,118.596879 137.547,120.918879 C136.102,122.757879 134.279,124.106879 132.289,125.301879 C116.706,134.664879 101.12,144.043879 85.5302,153.433879 C84.6351,154.007879 83.6648,154.457879 82.646,154.769879 C82.2791,154.869879 81.8968,154.827879 81.5299,154.915879 L80.2767,154.915879 Z M71.3676,74.998814 C67.7979,75.0053795 64.2923,74.0637795 61.2075,72.2732795 C44.1383,62.2977795 27.0468,52.3553795 9.93768001,42.4438795 C8.78172001,41.7630795 7.73205001,40.9805795 6.93926001,39.8864795 C5.58621001,38.0120795 5.61278001,35.8679795 7.00570001,34.0244795 C7.72098001,33.1137795 8.61342001,32.3555795 9.62987001,31.7985795 C17.0905,27.4993795 24.5577,23.2022795 32.0316,18.9074795 C41.6912,13.3505795 51.3486,7.7935795 61.0105,2.2366095 C63.1851,0.985519496 65.5479,0.348929496 68.0237,0.112409496 C71.1174,-0.208090504 74.2442,0.158829496 77.1762,1.1866695 C78.7219,1.7326395 80.0909,2.6101695 81.5033,3.4235995 C98.2006,13.1206795 114.889,22.8154795 131.569,32.5125795 C132.631,33.0894795 133.581,33.8542795 134.372,34.7693795 C136.128,36.9266795 136.037,39.4509795 134.144,41.4867795 C133.429,42.2250795 132.605,42.8527795 131.704,43.3457795 L105.291,58.5422795 C97.0513,63.2813795 88.8112,68.0226795 80.5688,72.7640795 C78.4938,73.9244795 76.1974,74.6384795 73.8279,74.8572795 C73.0108,74.9478795 72.1892,74.9943795 71.3676,74.998814 Z" id="Shape"></path>
        </g>
    </g>
</svg>