<?xml version="1.0" encoding="UTF-8" standalone="no"?>
<svg
   width="142px"
   height="156px"
   viewBox="0 0 142 156"
   version="1.1"
   id="svg1"
   sodipodi:docname="vectorizedcolor.svg"
   inkscape:version="1.3.2 (091e20e, 2023-11-25, custom)"
   xmlns:inkscape="http://www.inkscape.org/namespaces/inkscape"
   xmlns:sodipodi="http://sodipodi.sourceforge.net/DTD/sodipodi-0.dtd"
   xmlns:xlink="http://www.w3.org/1999/xlink"
   xmlns="http://www.w3.org/2000/svg"
   xmlns:svg="http://www.w3.org/2000/svg"
   xmlns:rdf="http://www.w3.org/1999/02/22-rdf-syntax-ns#"
   xmlns:cc="http://creativecommons.org/ns#"
   xmlns:dc="http://purl.org/dc/elements/1.1/">
  <defs
     id="defs1">
    <linearGradient
       id="linearGradient1"
       inkscape:collect="always">
      <stop
         style="stop-color:#00c1ff;stop-opacity:1;"
         offset="0"
         id="stop1" />
      <stop
         style="stop-color:#00d6a1;stop-opacity:1;"
         offset="0.61000001"
         id="stop2" />
    </linearGradient>
    <linearGradient
       inkscape:collect="always"
       xlink:href="#linearGradient1"
       id="linearGradient2"
       x1="-1.3358203e-11"
       y1="77.94304"
       x2="141.636"
       y2="77.94304"
       gradientUnits="userSpaceOnUse" />
    <linearGradient
       inkscape:collect="always"
       xlink:href="#linearGradient1"
       id="linearGradient3"
       gradientUnits="userSpaceOnUse"
       x1="-0.19847329"
       y1="155.11795"
       x2="141.70993"
       y2="0.30879313" />
    <linearGradient
       inkscape:collect="always"
       xlink:href="#linearGradient1"
       id="linearGradient4"
       gradientUnits="userSpaceOnUse"
       x1="-1.3358203e-11"
       y1="77.94304"
       x2="141.636"
       y2="77.94304" />
  </defs>
  <sodipodi:namedview
     id="namedview1"
     pagecolor="#ffffff"
     bordercolor="#000000"
     borderopacity="0.25"
     inkscape:showpageshadow="2"
     inkscape:pageopacity="0.0"
     inkscape:pagecheckerboard="0"
     inkscape:deskcolor="#d1d1d1"
     showgrid="false"
     inkscape:zoom="5.0384615"
     inkscape:cx="71.053435"
     inkscape:cy="78"
     inkscape:window-width="1445"
     inkscape:window-height="1035"
     inkscape:window-x="143"
     inkscape:window-y="0"
     inkscape:window-maximized="0"
     inkscape:current-layer="Page-1">
    <inkscape:grid
       id="grid4"
       units="px"
       originx="0"
       originy="0"
       spacingx="1"
       spacingy="1"
       empcolor="#0099e5"
       empopacity="0.30196078"
       color="#0099e5"
       opacity="0.14901961"
       empspacing="5"
       dotted="false"
       gridanglex="30"
       gridanglez="30"
       visible="false" />
  </sodipodi:namedview>
  <title
     id="title1">medibound 2</title>
  <g
     id="Page-1"
     stroke="none"
     stroke-width="1"
     fill="none"
     fill-rule="evenodd"
     style="fill:url(#linearGradient2);fill-rule:evenodd">
    <g
       id="medibound"
       transform="translate(0.364)"
       fill="#FFFFFF"
       fill-rule="nonzero"
       style="fill:url(#linearGradient4);fill-rule:evenodd">
      <path
         d="m 60.1224,154.91588 c -0.4773,-0.115 -0.9676,-0.21 -1.4387,-0.352 -0.82,-0.272 -1.6023,-0.645 -2.3294,-1.11 -15.9589,-9.6 -31.9245,-19.202 -47.89884,-28.807 -3.44107,-2.074 -5.70639,-5.151 -7.26007,-8.798 -0.80225299,-1.901 -1.20890509,-3.948 -1.19122452,-6.013 0.01547043,-17.312401 0.01547043,-34.624901 0,-51.937401 -0.03536107,-1.0657 0.15470453,-2.126899 0.55914752,-3.1129 0.879607,-1.9873 2.700707,-2.935599 4.837837,-2.543499 1.08956,0.221599 2.13493,0.6271 3.08747,1.2031 9.88338,5.689599 19.77128,11.377 29.66128,17.062099 5.9871,3.440801 11.9521,6.919301 17.9679,10.315801 3.6028,2.033899 6.1152,5.000499 7.8435,8.6961 1.0034,2.157999 1.5051,4.517599 1.4653,6.8993 -0.0729,10.4374 -0.0928,20.8754 -0.1366,31.3104 -0.027,7.112 -0.0557,14.224 -0.0888,21.336 0,1.081 -0.0884,2.151 -0.515,3.164 -0.6011,1.431 -1.62,2.355 -3.1803,2.619 -0.0486,0.015 -0.0928,0.037 -0.1326,0.066 z m 20.1543,0 c -0.2276,-0.066 -0.4729,-0.121 -0.705,-0.195 -1.6664,-0.545 -2.4996,-1.803 -2.9063,-3.418 -0.263,-1.071 -0.2144,-2.165 -0.2272,-3.255 -0.0424,-10.726 -0.0844,-21.453 -0.1242,-32.181 -0.0243,-6.454 0,-12.908 -0.0994,-19.3628 -0.0553,-3.729 1.1492,-6.997201 3.1803,-10.023801 1.5493,-2.3065 3.6113,-4.2209 6.027,-5.5924 15.9061,-9.1109 31.7951,-18.246199 47.6631,-27.4036 1.099,-0.6315 2.235,-1.1389 3.512,-1.2763 2.5,-0.2526 4.204,1.1566 4.796,3.5119 0.102,0.403201 0.163,0.817601 0.243,1.2275 v 54.417501 c -0.095,0.591 -0.08,1.194 -0.228,1.786 -0.68,2.893 -2.031,5.446 -3.861,7.768 -1.445,1.839 -3.268,3.188 -5.258,4.383 -15.583,9.363 -31.169,18.742 -46.7588,28.132 -0.8951,0.574 -1.8654,1.024 -2.8842,1.336 -0.3669,0.1 -0.7492,0.058 -1.1161,0.146 z M 71.3676,74.998814 C 67.7979,75.00538 64.2923,74.063779 61.2075,72.273279 44.1383,62.297779 27.0468,52.355379 9.93768,42.44388 8.78172,41.76308 7.73205,40.980579 6.93926,39.886479 c -1.35305,-1.8744 -1.32648,-4.0185 0.06644,-5.862 0.71528,-0.9107 1.60772,-1.6689 2.62417,-2.2259 7.46063,-4.2992 14.92783,-8.5963 22.40173,-12.8911 9.6596,-5.556899 19.317,-11.1138995 28.9789,-16.6708695 2.1746,-1.25109 4.5374,-1.88768 7.0132,-2.1242 3.0937,-0.3205 6.2205,0.04642 9.1525,1.07426 1.5457,0.54597 2.9147,1.4235 4.3271,2.23693 16.6973,9.6970805 33.3857,19.3918795 50.0657,29.0889795 1.062,0.576901 2.012,1.3417 2.803,2.2568 1.756,2.1573 1.665,4.681601 -0.228,6.7174 -0.715,0.7383 -1.539,1.366 -2.44,1.859 l -26.413,15.1965 c -8.2397,4.7391 -16.4798,9.4804 -24.7222,14.2218 -2.075,1.160401 -4.3714,1.874401 -6.7409,2.093201 -0.8171,0.0906 -1.6387,0.137099 -2.4603,0.141534 z"
         id="Shape"
         style="fill:url(#linearGradient3);fill-opacity:1;fill-rule:evenodd" />
    </g>
  </g>
  <metadata
     id="metadata4">
    <rdf:RDF>
      <cc:Work
         rdf:about="">
        <dc:title>medibound 2</dc:title>
      </cc:Work>
    </rdf:RDF>
  </metadata>
</svg>
